<svg xmlns="http://www.w3.org/2000/svg" viewBox="0 0 456.99 212.03">
  <defs>
    <style>
      .cls-1{fill:#194fa3;}.cls-2{fill:#63bb46;}.cls-3{fill:#7bbfea;}
    </style>
  </defs>
  <title>
    资源 1
  </title>
  <g id="图层_2" data-name="图层 2">
    <g id="图层_1-2" data-name="图层 1">
      <path id="_路径_" data-name="&lt;路径&gt;" class="cls-1" d="M169.87,190.37l-21.29-45.83,46.19,19.11a105.87,105.87,0,0,0,6.44-11.2c1-2.08,2-4.16,2.91-6.32l-97-40.12,44.41,95.62c2.09-1,4.18-2,6.2-3.14C157.77,198.49,166,193.29,169.87,190.37Z"/>
      <path id="_路径_2" data-name="&lt;路径&gt;" class="cls-2" d="M162.39,157.78l13,28.06a106.48,106.48,0,0,0,15.25-16.36Z"/>
      <path id="_路径_3" data-name="&lt;路径&gt;" class="cls-3" d="M106,0a106,106,0,0,0,0,212,104.65,104.65,0,0,0,39-7.69l-14.57-31.49A70.5,70.5,0,0,1,106,177.27a71.35,71.35,0,1,1,68.29-51l32.09,13.32A104.39,104.39,0,0,0,212,106,106,106,0,0,0,106,0Z"/>
      <path class="cls-1" d="M299.92,101.84h0l-41.82.42h-.36a1.77,1.77,0,0,0,.08-.52V89.19a1.27,1.27,0,0,0,.28,0h8.86a1.61,1.61,0,1,0,0-3.22h-8.86l-.28,0V73.11H266a1.61,1.61,0,1,0,0-3.22H257.8V56.74h5.68a1.61,1.61,0,0,0,0-3.22H257.8V49a1.61,1.61,0,0,0-3.22,0v4.57h-4.79a1.61,1.61,0,1,0,0,3.22h4.79V69.89h-8.19a1.61,1.61,0,1,0,0,3.22h8.19v28.5a9.18,9.18,0,0,1-5.77-8.53V84.93a1.61,1.61,0,1,0-3.22,0v8.15A12.41,12.41,0,0,0,258,105.49h.14l41.82-.42a1.62,1.62,0,0,0,0-3.23Z"/>
      <path class="cls-1" d="M301,94.59H287.15l13.51-17.21a4.13,4.13,0,0,0-3.24-6.69h-9.05a.91.91,0,0,1-.69-1.52l18.59-20a1.61,1.61,0,0,0-.13-2.28,1.59,1.59,0,0,0-2.27.14l-6.1,6.54a1.58,1.58,0,0,0-.58-.11h-27a1.61,1.61,0,0,0,0,3.22h9.66l-8.61,15.6a1.61,1.61,0,0,0,.63,2.19,1.54,1.54,0,0,0,.78.2,1.63,1.63,0,0,0,1.41-.83l9.48-17.16h11.29L285.28,67a4.13,4.13,0,0,0,3.09,6.88h9.05a.92.92,0,0,1,.71,1.48l-15.07,19.2h-9.52V86.38A5.49,5.49,0,0,1,279,80.9h4.51a1.61,1.61,0,0,0,0-3.22H279a8.71,8.71,0,0,0-8.71,8.7V96.2a1.62,1.62,0,0,0,1.61,1.62H301a1.62,1.62,0,0,0,0-3.23Z"/>
      <path class="cls-1" d="M365.38,72.39a1.61,1.61,0,0,0-2.68-1.79l-6.52,9.76v-22h5.64a1.61,1.61,0,1,0,0-3.22h-5.64V46.79a1.61,1.61,0,0,0-3.22,0v8.33h-7.17a1.61,1.61,0,0,0,0,3.22H353V85.19l-12.47,18.69-8.13-12.6,7.71-11.14a4.14,4.14,0,0,0-3.4-6.49H324.12a.92.92,0,0,1-.72-1.48l9.43-12a4.14,4.14,0,0,0-3.26-6.69H308.24a1.61,1.61,0,0,0,0,3.22h3.93l-8.28,47.79a1.61,1.61,0,0,0,1.31,1.86,1.33,1.33,0,0,0,.28,0,1.61,1.61,0,0,0,1.58-1.34L315.39,57a2.64,2.64,0,0,0,0-.28h14.16a.88.88,0,0,1,.82.52.87.87,0,0,1-.1,1l-9.42,12a4.13,4.13,0,0,0,3.25,6.69h12.55a.91.91,0,0,1,.75,1.43l-6.95,10-5-7.78a1.61,1.61,0,0,0-2.71,1.75l5.75,8.9-8.2,11.86a1.61,1.61,0,0,0,2.65,1.84l7.45-10.76,8.74,13.53a1.54,1.54,0,0,0,1.35.74,1.6,1.6,0,0,0,1.34-.72L353,91v11.38h-3.41a1.61,1.61,0,0,0,0,3.22h5a1.61,1.61,0,0,0,1.61-1.61V86.17Z"/>
      <path class="cls-1" d="M361.73,62.3a1.61,1.61,0,0,0,.48,2.23,1.55,1.55,0,0,0,.87.26,1.59,1.59,0,0,0,1.35-.74,19.09,19.09,0,0,0,2.95-8.93H393.8a15.73,15.73,0,0,1-2.41,7.18,1.62,1.62,0,0,0,.48,2.23,1.61,1.61,0,0,0,2.23-.48,19.81,19.81,0,0,0,2.53-14.91,1.61,1.61,0,1,0-3.15.69,16.42,16.42,0,0,1,.31,2.07H367.35a19.93,19.93,0,0,0-.39-2.76,1.61,1.61,0,1,0-3.14.69A16.63,16.63,0,0,1,361.73,62.3Z"/>
      <path class="cls-1" d="M425.78,77.68h-8.29V68.82h5.64a1.62,1.62,0,0,0,0-3.23h-14.5a1.62,1.62,0,1,0,0,3.23h5.63v8.86H381.64v-8.6a1.61,1.61,0,0,0-3.22,0v8.6H367a1.61,1.61,0,0,0,0,3.22h11.41v3a14.26,14.26,0,0,0-2.75.55,14,14,0,0,0-8.79,9.08l-4.33,10.61a1.61,1.61,0,0,0,.88,2.11,1.66,1.66,0,0,0,.61.12,1.61,1.61,0,0,0,1.49-1l4.36-10.7a10.89,10.89,0,0,1,6.73-7.13,11.11,11.11,0,0,1,1.8-.39v17.55a1.61,1.61,0,0,0,3.22,0V87.22a11.66,11.66,0,0,1,8.62,8.06l3.95,10.1a1.61,1.61,0,0,0,3-1.17l-3.91-10A14.77,14.77,0,0,0,381.64,84V80.9h32.62v23.89a1.63,1.63,0,0,0,1.62,1.62h7.25a1.62,1.62,0,0,0,0-3.23h-5.64V80.9h8.29a1.61,1.61,0,1,0,0-3.22Z"/>
      <path class="cls-1" d="M455.38,71H443.57V49.48a1.62,1.62,0,0,0-3.23,0V71H429.6a1.61,1.61,0,0,0,0,3.22h10.74v30.61a1.62,1.62,0,1,0,3.23,0V74.18h11.81a1.61,1.61,0,1,0,0-3.22Z"/>
      <path class="cls-1" d="M425.84,58.88H411.5a1.83,1.83,0,0,1-1.6-.89,1.86,1.86,0,0,1-.1-1.84l3.73-7.72a1.61,1.61,0,1,0-2.9-1.4l-3.73,7.71a5.12,5.12,0,0,0,4.6,7.36h14.34a1.61,1.61,0,1,0,0-3.22Z"/>
      <path class="cls-1" d="M374.11,59.9c0,.09-1.45,9.31-7.78,13.83a1.61,1.61,0,0,0,.94,2.92,1.55,1.55,0,0,0,.94-.3c7.43-5.3,9-15.55,9.08-16a1.62,1.62,0,0,0-1.35-1.84A1.55,1.55,0,0,0,374.11,59.9Z"/>
      <path class="cls-1" d="M386.21,59.9a1.58,1.58,0,0,0-1.83-1.36A1.62,1.62,0,0,0,383,60.38c.06.43,1.66,10.67,9.09,16a1.55,1.55,0,0,0,.94.3,1.58,1.58,0,0,0,1.3-.67,1.6,1.6,0,0,0-.37-2.25C387.69,69.23,386.23,60,386.21,59.9Z"/>
      <path class="cls-1" d="M271.15,144a13.72,13.72,0,0,0-7.56-5l-5.53-1.41a7.83,7.83,0,0,1-4.4-2.91,8.32,8.32,0,0,1,.67-11,8,8,0,0,1,5.93-2.52,7.77,7.77,0,0,1,7.23,4.12h0a.32.32,0,0,0,0,.09,2,2,0,0,0,2.79.67,2,2,0,0,0,.55-2.66h0l-.06-.08s0-.06,0-.08a.46.46,0,0,0-.07-.07,12.25,12.25,0,0,0-4.35-4.2,12,12,0,0,0-6.13-1.67,12.27,12.27,0,0,0-3.2,24.13l5.54,1.42a9.95,9.95,0,0,1,7.59,9.93,10,10,0,0,1-2.94,7.27,9.88,9.88,0,0,1-7.35,3,10.32,10.32,0,0,1-10.08-8h0a1.93,1.93,0,1,0-3.7,1l0,0h0a14.13,14.13,0,0,0,5,7.81,13.62,13.62,0,0,0,8.73,3,13.81,13.81,0,0,0,10-4.11,13.61,13.61,0,0,0,4.18-10.08A13.87,13.87,0,0,0,271.15,144Z"/>
      <path id="_复合路径_" data-name="&lt;复合路径&gt;" class="cls-1" d="M372.06,135.63a14.87,14.87,0,0,0-10.79,4.47,15.34,15.34,0,1,0,10.79-4.47Zm8.09,23.42a11.47,11.47,0,1,1,3.34-8.09A11,11,0,0,1,380.15,159.05Z"/>
      <path id="_路径_4" data-name="&lt;路径&gt;" class="cls-1" d="M298.47,134.44a2,2,0,0,0-2,1.95v18.26a7.57,7.57,0,0,1-2.16,5.35,7.21,7.21,0,0,1-5.5,2.31,7.52,7.52,0,0,1-5.36-2.23,7.32,7.32,0,0,1-2.3-5.43V136.39a1.95,1.95,0,0,0-3.9,0v18.26a11.37,11.37,0,0,0,11.56,11.56,11,11,0,0,0,8.23-3.47l3.34,2.69v-29A2,2,0,0,0,298.47,134.44Z"/>
      <path id="_复合路径_2" data-name="&lt;复合路径&gt;" class="cls-1" d="M320,135.63a14.89,14.89,0,0,0-11.08,4.75l-4.25-4v41.85a1.95,1.95,0,0,0,3.9,0V161.18A15.34,15.34,0,1,0,320,135.63Zm8.12,23.45a11.65,11.65,0,1,1,3.3-8.12A11,11,0,0,1,328.13,159.08Z"/>
      <path id="_路径_5" data-name="&lt;路径&gt;" class="cls-2" d="M306.63,182.55a2,2,0,0,0-1.95,1.95v0a1.95,1.95,0,0,0,3.9,0v0A2,2,0,0,0,306.63,182.55Z"/>
      <path id="_路径_6" data-name="&lt;路径&gt;" class="cls-1" d="M354.6,136.34h0a9.9,9.9,0,0,0-3.83-.71,10.75,10.75,0,0,0-8.09,3.4l-3.26-2.62v29a1.95,1.95,0,0,0,3.9,0V147a7.38,7.38,0,0,1,2.09-5.25,7.5,7.5,0,0,1,7.51-1.87v0a1.86,1.86,0,0,0,.91.26,2,2,0,0,0,.76-3.75Z"/>
      <path id="_复合路径_3" data-name="&lt;复合路径&gt;" class="cls-1" d="M455.29,155.53a2,2,0,0,0-2.69.64l0,0a.32.32,0,0,1,0,.09h0a11.32,11.32,0,0,1-4.15,4.47,11.58,11.58,0,0,1-12.81-.64l19.8-17.46a15.63,15.63,0,0,0-12.92-7,14.83,14.83,0,0,0-10.78,4.47,15.36,15.36,0,0,0,10.78,26.18,14.82,14.82,0,0,0,7.95-2.23,15.19,15.19,0,0,0,5.5-5.79v0l0,0A2,2,0,0,0,455.29,155.53ZM431,151a11.42,11.42,0,0,1,18.87-8.66l-17,15A11.4,11.4,0,0,1,431,151Z"/>
      <path class="cls-1" d="M420.53,140.1a15.38,15.38,0,0,0-22.29.64V117.16a1.95,1.95,0,1,0-3.9,0v48.27l4.26-3.9a14.85,14.85,0,0,0,11.07,4.75,14.66,14.66,0,0,0,10.86-4.54,15.33,15.33,0,0,0,0-21.64Zm-2.74,19a11.65,11.65,0,1,1,3.3-8.12A11,11,0,0,1,417.79,159.08Z"/>
    </g>
  </g>
</svg>